<svg width="20" height="20" fill="none" xmlns="http://www.w3.org/2000/svg"><path fill-rule="evenodd" clip-rule="evenodd" d="M3.031 8.556A2.7 2.7 0 015.694 6.3h7.612a2.7 2.7 0 012.663 2.256L17.826 19.7H1.174L3.03 8.556zM5.694 7.7a1.3 1.3 0 00-1.282 1.086L2.826 18.3h13.348l-1.586-9.514A1.3 1.3 0 0013.306 7.7H5.694z" fill="#000"/><path fill-rule="evenodd" clip-rule="evenodd" d="M3.031 8.556A2.7 2.7 0 015.694 6.3h7.612a2.7 2.7 0 012.663 2.256L17.826 19.7H1.174L3.03 8.556zM5.694 7.7a1.3 1.3 0 00-1.282 1.086L2.826 18.3h13.348l-1.586-9.514A1.3 1.3 0 0013.306 7.7H5.694z" fill="#000" fill-opacity=".2"/><path fill-rule="evenodd" clip-rule="evenodd" d="M10.903 2.608a2.851 2.851 0 00-2.806 0A2.771 2.771 0 006.7 5H5.3c0-1.491.814-2.871 2.103-3.608a4.251 4.251 0 014.194 0A4.172 4.172 0 0113.7 5h-1.4c0-.982-.539-1.901-1.397-2.392z" fill="#000"/><path fill-rule="evenodd" clip-rule="evenodd" d="M10.903 2.608a2.851 2.851 0 00-2.806 0A2.771 2.771 0 006.7 5H5.3c0-1.491.814-2.871 2.103-3.608a4.251 4.251 0 014.194 0A4.172 4.172 0 0113.7 5h-1.4c0-.982-.539-1.901-1.397-2.392z" fill="#000" fill-opacity=".2"/></svg>