<svg width="109" height="56" viewBox="0 0 109 56" fill="none" xmlns="http://www.w3.org/2000/svg">
<g clip-path="url(#clip0_5204_5645)">
<path fill-rule="evenodd" clip-rule="evenodd" d="M19.9597 41.4705V47.0402H17.458V43.7125H6.95592V47.0402H4.45426V41.4705H5.68139C6.4366 40.794 6.99126 39.5667 7.34532 37.7888C7.69923 36.0109 7.87629 33.5329 7.87629 30.3547V28.1362H17.9772V41.4705H19.9597ZM8.4191 41.4705H15.4757V30.3783H10.189C10.1734 35.9323 9.58332 39.6296 8.4191 41.4705ZM27.5355 43.9721C26.4185 43.9721 25.3918 43.7008 24.4556 43.158C23.5194 42.6152 22.78 41.8796 22.2373 40.9512C21.6945 40.023 21.423 39.0082 21.423 37.9069C21.423 36.7897 21.6945 35.771 22.2373 34.8506C22.78 33.9302 23.5194 33.2025 24.4556 32.6675C25.3918 32.1326 26.4185 31.8651 27.5355 31.8651C28.6683 31.8651 29.7067 32.1326 30.6508 32.6675C31.5948 33.2025 32.3382 33.9341 32.881 34.8624C33.4239 35.7906 33.6952 36.8054 33.6952 37.9069C33.6952 39.0082 33.4239 40.023 32.881 40.9512C32.3382 41.8796 31.5948 42.6152 30.6508 43.158C29.7067 43.7008 28.6683 43.9721 27.5355 43.9721ZM27.5355 41.683C28.2121 41.683 28.8257 41.5176 29.3763 41.1872C29.927 40.8569 30.3597 40.4046 30.6745 39.8303C30.989 39.2559 31.1464 38.6227 31.1464 37.9305C31.1464 37.2224 30.989 36.5773 30.6745 35.9953C30.3597 35.4131 29.927 34.9568 29.3763 34.6264C28.8257 34.2959 28.22 34.1308 27.5591 34.1308C26.8825 34.1308 26.269 34.2959 25.7183 34.6264C25.1675 34.9568 24.7349 35.4131 24.4203 35.9953C24.1055 36.5773 23.9483 37.2224 23.9483 37.9305C23.9483 38.6384 24.1055 39.2795 24.4203 39.8539C24.7349 40.4281 25.1637 40.8766 25.7066 41.1991C26.2494 41.5216 26.8589 41.683 27.5355 41.683ZM36.5508 31.8651H37.424L42.8758 38.1665L48.351 31.8651H49.177V43.7125H46.6989V37.01L43.3005 40.9512H42.4273L39.0525 37.0336V43.7125H36.5508V31.8651ZM57.9564 33.3756C58.8532 33.3756 59.6949 33.6037 60.4816 34.0599C61.2682 34.5162 61.8976 35.1416 62.3697 35.9361C62.8417 36.7307 63.0777 37.6158 63.0777 38.5912C63.0777 39.5982 62.8259 40.5108 62.3225 41.3289C61.819 42.147 61.1463 42.7921 60.3046 43.2642C59.4629 43.7361 58.5464 43.9721 57.5552 43.9721C56.5639 43.9721 55.6474 43.7401 54.8057 43.2759C53.9639 42.8118 53.2953 42.1667 52.7997 41.3406C52.3041 40.5146 52.0562 39.5903 52.0562 38.5676C52.0562 37.9539 52.1467 37.3837 52.3277 36.8566C52.5085 36.3295 52.7288 35.8535 52.9884 35.4288C53.2481 35.0039 53.6454 34.4061 54.1803 33.6352L58.0744 28.1362H61.0245L57.272 33.4463C57.4765 33.3991 57.7046 33.3756 57.9564 33.3756ZM57.5552 41.683C58.4047 41.683 59.1246 41.3879 59.7146 40.7978C60.3046 40.2079 60.5996 39.4722 60.5996 38.5912C60.5996 37.7102 60.3046 36.9746 59.7146 36.3846C59.1246 35.7946 58.4047 35.4996 57.5552 35.4996C56.6898 35.4996 55.9661 35.7946 55.384 36.3846C54.8017 36.9746 54.5107 37.7102 54.5107 38.5912C54.5107 39.4722 54.8017 40.2079 55.384 40.7978C55.9661 41.3879 56.6898 41.683 57.5552 41.683ZM75.1847 28.1362V28.8207L67.6561 43.7125H64.9421L71.8099 30.3783H64.4937V28.1362H75.1847ZM6.19269 53.9459C5.87454 53.9459 5.58257 53.8688 5.31662 53.7142C5.05072 53.5596 4.84055 53.3494 4.68595 53.0835C4.5314 52.8176 4.4541 52.5256 4.4541 52.2073C4.4541 51.8892 4.5314 51.5983 4.68595 51.3347C4.84055 51.0711 5.05072 50.862 5.31662 50.7074C5.58257 50.5529 5.87454 50.4756 6.19269 50.4756C6.48368 50.4756 6.74725 50.5405 6.98365 50.67C7.21995 50.7995 7.4131 50.9756 7.56315 51.1982L7.18808 51.4983C6.92001 51.1393 6.59043 50.9596 6.19958 50.9596C5.97223 50.9596 5.76661 51.0154 5.58257 51.1267C5.39847 51.2381 5.25417 51.3892 5.1496 51.5802C5.04503 51.771 4.99277 51.9801 4.99277 52.2073C4.99277 52.4392 5.04503 52.6505 5.1496 52.8415C5.25417 53.0323 5.39847 53.1835 5.58257 53.2949C5.76661 53.4062 5.97223 53.4619 6.19958 53.4619C6.59043 53.4619 6.91763 53.2846 7.18136 52.9301L7.55622 53.2233C7.40633 53.4459 7.21421 53.6221 6.98014 53.7516C6.74606 53.8812 6.48368 53.9459 6.19269 53.9459ZM10.2699 51.0211H9.15185V50.5506H11.9062V51.0211H10.788V53.871H10.2699V51.0211ZM15.5198 50.4756C15.8334 50.4756 16.1153 50.5517 16.3652 50.704C16.6151 50.8562 16.8106 51.0642 16.9516 51.3279C17.0923 51.5915 17.1629 51.8847 17.1629 52.2073C17.1629 52.5301 17.0913 52.8243 16.9482 53.0902C16.8049 53.3562 16.6084 53.5653 16.3585 53.7175C16.1084 53.8698 15.8288 53.9459 15.5198 53.9459C15.2743 53.9459 15.0436 53.8971 14.8277 53.7994C14.6118 53.7017 14.4356 53.5665 14.2994 53.3937V55.0981H13.7743V50.5506H14.2652V51.0824C14.3925 50.8916 14.5687 50.7427 14.7937 50.6358C15.0186 50.529 15.2606 50.4756 15.5198 50.4756ZM15.4447 53.4619C15.6675 53.4619 15.8686 53.4085 16.0481 53.3016C16.2278 53.1948 16.3685 53.0459 16.4709 52.8551C16.5732 52.6642 16.6242 52.4505 16.6242 52.2142C16.6242 51.9778 16.5732 51.7642 16.4709 51.5733C16.3685 51.3825 16.2278 51.2324 16.0481 51.1233C15.8686 51.0142 15.6675 50.9596 15.4447 50.9596C15.2448 50.9596 15.0572 51.0051 14.8822 51.096C14.7073 51.187 14.5653 51.3256 14.4562 51.512C14.347 51.6983 14.2925 51.9301 14.2925 52.2073C14.2925 52.4847 14.3459 52.7175 14.4528 52.9062C14.5596 53.0948 14.7005 53.2346 14.8755 53.3255C15.0505 53.4165 15.2402 53.4619 15.4447 53.4619ZM20.7219 53.9391C20.4037 53.9391 20.1128 53.8619 19.8493 53.7073C19.5855 53.5529 19.3765 53.3425 19.2219 53.0766C19.0674 52.8107 18.9901 52.521 18.9901 52.2073C18.9901 51.8892 19.0674 51.5972 19.2219 51.3313C19.3765 51.0654 19.5867 50.8562 19.8526 50.704C20.1186 50.5517 20.4105 50.4756 20.7287 50.4756C21.0469 50.4756 21.339 50.5529 21.6049 50.7074C21.8708 50.862 22.0809 51.0711 22.2355 51.3347C22.39 51.5983 22.4673 51.8892 22.4673 52.2073C22.4673 52.521 22.39 52.8107 22.2355 53.0766C22.0809 53.3425 21.8696 53.5529 21.6013 53.7073C21.3332 53.8619 21.0401 53.9391 20.7219 53.9391ZM20.7219 53.455C20.9446 53.455 21.148 53.4005 21.332 53.2915C21.5161 53.1823 21.6616 53.0335 21.7684 52.8449C21.8753 52.6563 21.9287 52.446 21.9287 52.2142C21.9287 51.9778 21.8764 51.7642 21.7719 51.5733C21.6673 51.3825 21.523 51.2324 21.339 51.1233C21.1549 51.0142 20.9514 50.9596 20.7287 50.9596C20.5015 50.9596 20.2969 51.0142 20.115 51.1233C19.9333 51.2324 19.7902 51.3825 19.6856 51.5733C19.581 51.7642 19.5288 51.9778 19.5288 52.2142C19.5288 52.446 19.581 52.6563 19.6856 52.8449C19.7902 53.0335 19.9333 53.1823 20.115 53.2915C20.2969 53.4005 20.4991 53.455 20.7219 53.455ZM27.2739 50.4756V53.871H26.7489V51.5256L24.724 53.9459H24.5331V50.5506H25.0581V52.9028L27.083 50.4756H27.2739ZM30.2466 51.0211H29.1285V50.5506H31.883V51.0211H30.7648V53.871H30.2466V51.0211ZM36.676 52.371H34.0512C34.083 52.6982 34.2125 52.9619 34.4398 53.1618C34.667 53.3619 34.9444 53.4619 35.2716 53.4619C35.6488 53.4619 35.9874 53.3118 36.2875 53.012L36.5942 53.3664C36.4216 53.5483 36.2227 53.6903 35.9977 53.7925C35.7727 53.8949 35.5284 53.9459 35.2648 53.9459C34.9374 53.9459 34.6397 53.8698 34.3716 53.7175C34.1035 53.5653 33.8922 53.3573 33.7376 53.0938C33.583 52.8301 33.5057 52.5369 33.5057 52.2142C33.5057 51.8961 33.5808 51.6039 33.7307 51.338C33.8807 51.0721 34.0853 50.862 34.3443 50.7074C34.6035 50.5529 34.8898 50.4756 35.2034 50.4756C35.4853 50.4756 35.742 50.5393 35.9738 50.6666C36.2057 50.7937 36.3874 50.9711 36.5192 51.1982C36.6511 51.4256 36.7169 51.6846 36.7169 51.9756C36.7169 52.1029 36.7033 52.2346 36.676 52.371ZM35.1897 50.9529C34.9125 50.9529 34.6715 51.0404 34.4671 51.2154C34.2625 51.3904 34.1308 51.6211 34.0717 51.9074H36.1784C36.1738 51.612 36.0772 51.379 35.8886 51.2085C35.7 51.0381 35.467 50.9529 35.1897 50.9529ZM41.2919 50.5506V53.871H40.767V51.0211H39.5329L39.5193 51.4301C39.5011 52.012 39.4579 52.4801 39.3898 52.8346C39.3216 53.1891 39.2125 53.455 39.0625 53.6323C38.9126 53.8096 38.708 53.8982 38.4488 53.8982C38.3853 53.8982 38.3262 53.8892 38.2716 53.871V53.4277C38.3262 53.4368 38.3717 53.4414 38.408 53.4414C38.6216 53.4414 38.7738 53.2743 38.8647 52.9403C38.9557 52.6063 39.0079 52.0984 39.0215 51.4165L39.0421 50.5506H41.2919ZM43.5963 50.5506H44.1214V51.696H44.9123C45.2895 51.696 45.5906 51.7949 45.8157 51.9926C46.0407 52.1903 46.1532 52.4528 46.1532 52.78C46.1532 53.1074 46.0407 53.371 45.8157 53.571C45.5906 53.7709 45.2895 53.871 44.9123 53.871H43.5963V50.5506ZM44.8849 53.4074C45.1168 53.4074 45.2964 53.3506 45.4237 53.2369C45.5508 53.1232 45.6145 52.9732 45.6145 52.7869C45.6145 52.6005 45.5498 52.4495 45.4201 52.3335C45.2906 52.2176 45.11 52.1596 44.8782 52.1596H44.1214V53.4074H44.8849ZM48.219 50.5506H48.7441V51.8733H50.3736V50.5506H50.8985V53.871H50.3736V52.337H48.7441V53.871H48.219V50.5506ZM54.3893 50.4756C54.7803 50.4756 55.0939 50.5915 55.3301 50.8234C55.5666 51.0551 55.6848 51.3892 55.6848 51.8255V53.871H55.1939V53.4414C55.0711 53.6051 54.9143 53.73 54.7233 53.8164C54.5326 53.9028 54.3167 53.9459 54.0757 53.9459C53.7348 53.9459 53.4565 53.8618 53.2404 53.6936C53.0245 53.5256 52.9166 53.2982 52.9166 53.012C52.9166 52.73 53.0257 52.5051 53.2439 52.337C53.4621 52.1687 53.7507 52.0847 54.1097 52.0847H55.1597V51.7983C55.1597 51.5256 55.0881 51.3176 54.945 51.1745C54.8018 51.0314 54.6052 50.9596 54.3553 50.9596C54.1552 50.9596 53.978 51.004 53.8234 51.0926C53.6688 51.1813 53.5235 51.3143 53.3871 51.4915L53.0393 51.2052C53.1894 50.9596 53.3825 50.7768 53.6188 50.6563C53.8552 50.5359 54.1121 50.4756 54.3893 50.4756ZM54.1439 53.5096C54.3256 53.5096 54.4938 53.4698 54.6484 53.3903C54.803 53.3107 54.9268 53.2006 55.0199 53.0596C55.1132 52.9187 55.1597 52.7642 55.1597 52.596V52.5142H54.1712C53.9393 52.5142 53.7621 52.5539 53.6394 52.6335C53.5166 52.713 53.4553 52.8301 53.4553 52.9846C53.4553 53.1527 53.5211 53.2824 53.653 53.3733C53.7849 53.4641 53.9484 53.5096 54.1439 53.5096ZM60.3619 50.5506V53.871H59.8369V52.6573H59.2097L58.2961 53.871H57.6825L58.6507 52.5892C58.4052 52.5165 58.2132 52.3949 58.0745 52.2245C57.936 52.0539 57.8666 51.8506 57.8666 51.6142C57.8666 51.2915 57.9733 51.0335 58.187 50.8404C58.4006 50.6472 58.6847 50.5506 59.0394 50.5506H60.3619ZM59.8369 51.0211H59.0733C58.8642 51.0211 58.7007 51.0733 58.5825 51.1778C58.4643 51.2824 58.4052 51.4256 58.4052 51.6075C58.4052 51.7846 58.4654 51.9267 58.5858 52.0335C58.7062 52.1403 58.8711 52.1937 59.0801 52.1937H59.8369V51.0211ZM65.7209 50.5506H66.246V53.871H65.7209V50.5506ZM68.5163 53.871H67.8549L66.3142 52.071L67.7117 50.5506H68.3663L66.9549 52.0574L68.5163 53.871ZM71.7685 53.9391C71.4502 53.9391 71.1594 53.8619 70.8958 53.7073C70.6322 53.5529 70.4231 53.3425 70.2686 53.0766C70.114 52.8107 70.0367 52.521 70.0367 52.2073C70.0367 51.8892 70.114 51.5972 70.2686 51.3313C70.4231 51.0654 70.6333 50.8562 70.8993 50.704C71.1652 50.5517 71.4572 50.4756 71.7753 50.4756C72.0935 50.4756 72.3856 50.5529 72.6515 50.7074C72.9174 50.862 73.1275 51.0711 73.2821 51.3347C73.4366 51.5983 73.5139 51.8892 73.5139 52.2073C73.5139 52.521 73.4366 52.8107 73.2821 53.0766C73.1275 53.3425 72.9162 53.5529 72.6479 53.7073C72.3798 53.8619 72.0867 53.9391 71.7685 53.9391ZM71.7685 53.455C71.9911 53.455 72.1946 53.4005 72.3787 53.2915C72.5627 53.1823 72.7082 53.0335 72.815 52.8449C72.9219 52.6563 72.9753 52.446 72.9753 52.2142C72.9753 51.9778 72.9229 51.7642 72.8185 51.5733C72.714 51.3825 72.5696 51.2324 72.3856 51.1233C72.2015 51.0142 71.9981 50.9596 71.7753 50.9596C71.5481 50.9596 71.3435 51.0142 71.1616 51.1233C70.9799 51.2324 70.8368 51.3825 70.7322 51.5733C70.6276 51.7642 70.5754 51.9778 70.5754 52.2142C70.5754 52.446 70.6276 52.6563 70.7322 52.8449C70.8368 53.0335 70.9799 53.1823 71.1616 53.2915C71.3435 53.4005 71.5458 53.455 71.7685 53.455ZM75.5797 50.4756H75.7706L77.3455 52.3437L78.9137 50.4756H79.0977V53.871H78.5728V51.6278L77.441 52.9778H77.2364L76.1047 51.6278V53.871H75.5797V50.4756ZM81.4022 50.5506H84.0543V53.871H83.5226V51.0211H81.9272V53.871H81.4022V50.5506ZM87.5452 50.4756C87.9362 50.4756 88.2497 50.5915 88.486 50.8234C88.7225 51.0551 88.8407 51.3892 88.8407 51.8255V53.871H88.3498V53.4414C88.227 53.6051 88.0703 53.73 87.8793 53.8164C87.6885 53.9028 87.4726 53.9459 87.2316 53.9459C86.8907 53.9459 86.6124 53.8618 86.3963 53.6936C86.1804 53.5256 86.0725 53.2982 86.0725 53.012C86.0725 52.73 86.1816 52.5051 86.3999 52.337C86.6179 52.1687 86.9066 52.0847 87.2656 52.0847H88.3156V51.7983C88.3156 51.5256 88.2441 51.3176 88.1009 51.1745C87.9578 51.0314 87.7611 50.9596 87.5111 50.9596C87.3111 50.9596 87.1339 51.004 86.9794 51.0926C86.8248 51.1813 86.6794 51.3143 86.543 51.4915L86.1953 51.2052C86.3453 50.9596 86.5385 50.7768 86.7747 50.6563C87.0112 50.5359 87.268 50.4756 87.5452 50.4756ZM87.2998 53.5096C87.4815 53.5096 87.6498 53.4698 87.8043 53.3903C87.9589 53.3107 88.0827 53.2006 88.1759 53.0596C88.2691 52.9187 88.3156 52.7642 88.3156 52.596V52.5142H87.3271C87.0952 52.5142 86.918 52.5539 86.7953 52.6335C86.6725 52.713 86.6112 52.8301 86.6112 52.9846C86.6112 53.1527 86.677 53.2824 86.8089 53.3733C86.9408 53.4641 87.1043 53.5096 87.2998 53.5096ZM91.0975 50.5506H91.6225V51.8733H93.252V50.5506H93.7769V53.871H93.252V52.337H91.6225V53.871H91.0975V50.5506ZM98.8155 50.4756V53.871H98.2904V51.5256L96.2655 53.9459H96.0745V50.5506H96.5997V52.9028L98.6245 50.4756H98.8155ZM103.534 50.5506V53.871H103.009V52.6573H102.381L101.468 53.871H100.854L101.822 52.5892C101.577 52.5165 101.385 52.3949 101.246 52.2245C101.108 52.0539 101.038 51.8506 101.038 51.6142C101.038 51.2915 101.145 51.0335 101.359 50.8404C101.572 50.6472 101.856 50.5506 102.211 50.5506H103.534ZM103.009 51.0211H102.245C102.036 51.0211 101.872 51.0733 101.754 51.1778C101.636 51.2824 101.577 51.4256 101.577 51.6075C101.577 51.7846 101.637 51.9267 101.757 52.0335C101.878 52.1403 102.043 52.1937 102.252 52.1937H103.009V51.0211ZM95.3003 17.0105C95.2723 11.1578 95.3003 15.9786 95.2723 8.8817C96.2825 8.8817 97.6576 8.8817 98.5836 8.8817C98.4994 12.5149 98.5555 16.3178 98.5555 19.8521C99.8182 21.2234 102.288 23.5984 103.522 24.8707C103.55 31.1193 103.522 37.382 103.522 43.687H76.9761V40.1528H100.099C100.099 37.1982 100.099 28.1788 100.099 26.4258C93.7569 20.0641 89.0426 15.2433 83.9354 10.2813C79.4175 14.7486 73.0194 21.1668 69.3994 24.701C67.9683 24.701 65.9759 24.701 64.5729 24.701C71.3077 18.0143 77.2006 12.1191 83.8792 5.2627C91.933 13.547 88.1728 9.68762 95.3003 17.0105ZM90.3953 14.0913C86.8315 10.5147 88.4872 12.1403 90.3953 14.0913V14.0913ZM81.0368 29.0458H83.3941V25.0875H81.0368V29.0458ZM84.9934 29.0458H87.3507V25.0875H84.9934V29.0458ZM81.0368 34.1776H83.3941V30.2192H81.0368V34.1776ZM84.9934 34.1776H87.3507V30.2192H84.9934V34.1776ZM73.7499 10.5075L71.3646 12.8967C70.4666 12.0202 69.5967 11.1578 68.6987 10.2813C64.1807 14.7486 57.7827 21.1668 54.1628 24.701C52.7877 24.701 50.7953 24.701 49.3361 24.701C56.0709 18.0143 61.9638 12.1191 68.6426 5.2627C71.4768 8.17492 72.8518 9.58864 73.7499 10.5075Z" fill="#313130"/>
</g>
<defs>
<clipPath id="clip0_5204_5645">
<rect width="109" height="55" fill="white" transform="translate(0 0.5)"/>
</clipPath>
</defs>
</svg>
